{
  "accessors": [
    {
      "bufferView": 2,
      "componentType": 5126,
      "count": 65532,
      "max": [
        0.22210651636123657,
        0.65716665983200073,
        0.64579391479492188
      ],
      "min": [
        -0.37499728798866272,
        -0.93582111597061157,
        -0.20977967977523804
      ],
      "type": "VEC3"
    },
    {
      "bufferView": 2,
      "byteOffset": 786384,
      "componentType": 5126,
      "count": 65532,
      "max": [
        0.99987435340881348,
        0.99998325109481812,
        0.99999475479125977
      ],
      "min": [
        -0.99999731779098511,
        -0.99998646974563599,
        -0.99995619058609009
      ],
      "type": "VEC3"
    },
    {
      "bufferView": 3,
      "componentType": 5126,
      "count": 65532,
      "max": [
        0.99993062019348145,
        0.99999034404754639,
        0.99993270635604858,
        1
      ],
      "min": [
        -0.99999964237213135,
        -0.99998444318771362,
        -0.99997091293334961,
        -1
      ],
      "type": "VEC4"
    },
    {
      "bufferView": 1,
      "componentType": 5126,
      "count": 65532,
      "max": [
        0.99663454294204712,
        0.9961971640586853
      ],
      "min": [
        0.0033319382928311825,
        0.0033319592475891113
      ],
      "type": "VEC2"
    },
    {
      "bufferView": 0,
      "componentType": 5125,
      "count": 326985,
      "max": [
        65531
      ],
      "min": [
        0
      ],
      "type": "SCALAR"
    },
    {
      "bufferView": 2,
      "byteOffset": 1572768,
      "componentType": 5126,
      "count": 54991,
      "max": [
        0.33569988608360291,
        0.65716665983200073,
        0.31484031677246094
      ],
      "min": [
        -0.30419662594795227,
        -0.93556946516036987,
        -0.45672124624252319
      ],
      "type": "VEC3"
    },
    {
      "bufferView": 2,
      "byteOffset": 2232660,
      "componentType": 5126,
      "count": 54991,
      "max": [
        0.99999862909317017,
        0.9999699592590332,
        0.99997711181640625
      ],
      "min": [
        -0.99999731779098511,
        -0.99990618228912354,
        -0.99995619058609009
      ],
      "type": "VEC3"
    },
    {
      "bufferView": 3,
      "byteOffset": 1048512,
      "componentType": 5126,
      "count": 54991,
      "max": [
        0.99996054172515869,
        0.99999582767486572,
        0.99999469518661499,
        1
      ],
      "min": [
        -0.99998641014099121,
        -0.99996340274810791,
        -0.9999089241027832,
        -1
      ],
      "type": "VEC4"
    },
    {
      "bufferView": 1,
      "byteOffset": 524256,
      "componentType": 5126,
      "count": 54991,
      "max": [
        0.99666345119476318,
        0.99666804075241089
      ],
      "min": [
        0.0033319382928311825,
        0.0035360455513000488
      ],
      "type": "VEC2"
    },
    {
      "bufferView": 0,
      "byteOffset": 1307940,
      "componentType": 5125,
      "count": 271917,
      "max": [
        54990
      ],
      "min": [
        0
      ],
      "type": "SCALAR"
    }
  ],
  "asset": {
    "generator": "Sketchfab (OSG glTF plugin)",
    "version": "2.0"
  },
  "bufferViews": [
    {
      "buffer": 0,
      "byteLength": 2395608,
      "byteOffset": 0,
      "name": "floatBufferViews",
      "target": 34963
    },
    {
      "buffer": 0,
      "byteLength": 964184,
      "byteOffset": 2395608,
      "byteStride": 8,
      "name": "floatBufferViews",
      "target": 34962
    },
    {
      "buffer": 0,
      "byteLength": 2892552,
      "byteOffset": 3359792,
      "byteStride": 12,
      "name": "floatBufferViews",
      "target": 34962
    },
    {
      "buffer": 0,
      "byteLength": 1928368,
      "byteOffset": 6252344,
      "byteStride": 16,
      "name": "floatBufferViews",
      "target": 34962
    }
  ],
  "buffers": [
    {
      "byteLength": 8180712,
      "uri": "scene.bin"
    }
  ],
  "images": [
    {
      "uri": "textures/material_0_baseColor.jpeg"
    }
  ],
  "materials": [
    {
      "doubleSided": true,
      "emissiveFactor": [
        0,
        0,
        0
      ],
      "name": "material_0",
      "pbrMetallicRoughness": {
        "baseColorFactor": [
          1,
          1,
          1,
          1
        ],
        "baseColorTexture": {
          "index": 0,
          "texCoord": 0
        },
        "metallicFactor": 0,
        "roughnessFactor": 0.59999999999999998
      }
    }
  ],
  "meshes": [
    {
      "primitives": [
        {
          "attributes": {
            "NORMAL": 1,
            "POSITION": 0,
            "TANGENT": 2,
            "TEXCOORD_0": 3
          },
          "indices": 4,
          "material": 0,
          "mode": 4
        }
      ]
    },
    {
      "primitives": [
        {
          "attributes": {
            "NORMAL": 6,
            "POSITION": 5,
            "TANGENT": 7,
            "TEXCOORD_0": 8
          },
          "indices": 9,
          "material": 0,
          "mode": 4
        }
      ]
    }
  ],
  "nodes": [
    {
      "children": [
        1
      ],
      "name": "RootNode (gltf orientation matrix)",
      "rotation": [
        -0.70710678118654746,
        -0,
        -0,
        0.70710678118654757
      ]
    },
    {
      "children": [
        2
      ],
      "matrix": [
        1,
        0,
        0,
        0,
        0,
        0,
        1,
        0,
        0,
        -1,
        0,
        0,
        0,
        -0.044791489839553833,
        0.23386213183403015,
        1
      ],
      "name": "RootNode (model correction matrix)"
    },
    {
      "children": [
        3,
        4
      ],
      "name": "Geode"
    },
    {
      "mesh": 0,
      "name": ""
    },
    {
      "mesh": 1,
      "name": ""
    }
  ],
  "samplers": [
    {
      "magFilter": 9729,
      "minFilter": 9987,
      "wrapS": 33071,
      "wrapT": 33071
    }
  ],
  "scene": 0,
  "scenes": [
    {
      "name": "OSG_Scene",
      "nodes": [
        0
      ]
    }
  ],
  "textures": [
    {
      "sampler": 0,
      "source": 0
    }
  ]
}

